<?xml version="1.0" encoding="utf-8"?>
<!-- Generator: Adobe Illustrator 26.3.1, SVG Export Plug-In . SVG Version: 6.00 Build 0)  -->
<svg version="1.1" id="Capa_2_00000085952424015570084280000003961554860482320803_"
	 xmlns="http://www.w3.org/2000/svg" xmlns:xlink="http://www.w3.org/1999/xlink" x="0px" y="0px" viewBox="0 0 32 32"
	 style="enable-background:new 0 0 32 32;" xml:space="preserve">
<style type="text/css">
	.st0{fill:#FFFFFF;}
</style>
<path class="st0" d="M22.4,0H9.6C4.3,0,0,4.3,0,9.6v12.8C0,27.7,4.3,32,9.6,32h4.5V19.6H9.6v-5.1h4.5v-3.9c0-4.5,2.7-6.9,6.7-6.9
	c1.3,0,2.7,0.1,4,0.3v4.4h-2.3c-1.4-0.2-2.7,0.8-2.9,2.2c0,0.2,0,0.4,0,0.6v3.3h4.9l-0.8,5.1h-4.1V32h2.7c5.3,0,9.6-4.3,9.6-9.6V9.6
	C32,4.3,27.7,0,22.4,0z"/>
</svg>
