<?xml version="1.0" encoding="utf-8"?>
<!-- Generator: Adobe Illustrator 26.3.1, SVG Export Plug-In . SVG Version: 6.00 Build 0)  -->
<svg version="1.1" id="Capa_1" xmlns="http://www.w3.org/2000/svg" xmlns:xlink="http://www.w3.org/1999/xlink" x="0px" y="0px"
	 viewBox="0 0 32 32" style="enable-background:new 0 0 32 32;" xml:space="preserve">
<style type="text/css">
	.st0{fill:#EB4A4C;}
</style>
<g>
	<path class="st0" d="M24.5,5.7c-1,0-1.9,0.8-1.9,1.9s0.8,1.9,1.9,1.9c1,0,1.9-0.8,1.9-1.9c0,0,0,0,0,0C26.3,6.6,25.5,5.7,24.5,5.7z
		"/>
	<path class="st0" d="M16.1,8.1c-4.4,0-7.9,3.5-7.9,7.9c0,4.4,3.5,7.9,7.9,7.9S24,20.4,24,16c0,0,0,0,0,0C24,11.7,20.5,8.1,16.1,8.1
		z M16.1,21c-2.8,0-5.1-2.3-5-5.1c0-2.8,2.3-5.1,5.1-5c2.8,0,5,2.3,5,5.1l0,0C21.2,18.8,18.9,21,16.1,21z"/>
	<path class="st0" d="M22.4,32H9.6C4.3,32,0,27.7,0,22.4V9.6C0,4.3,4.3,0,9.6,0h12.8C27.7,0,32,4.3,32,9.6v12.8
		C32,27.7,27.7,32,22.4,32z M9.6,3C6,3,3,6,3,9.6v12.8C3,26,6,29,9.6,29l0,0h12.8c3.6,0,6.6-3,6.6-6.6V9.6C29,6,26,3,22.4,3H9.6z"/>
</g>
</svg>
