<?xml version="1.0" encoding="utf-8"?>
<!-- Generator: Adobe Illustrator 26.3.1, SVG Export Plug-In . SVG Version: 6.00 Build 0)  -->
<svg version="1.1" id="Capa_1" xmlns="http://www.w3.org/2000/svg" xmlns:xlink="http://www.w3.org/1999/xlink" x="0px" y="0px"
	 viewBox="0 0 34 34" style="enable-background:new 0 0 34 34;" xml:space="preserve">
<style type="text/css">
	.st0{fill:#EB4A4C;}
</style>
<g>
	<g>
		<path class="st0" d="M17,33.9L17,33.9c-0.3,0-0.6-0.1-0.9-0.4C15.6,33,3.9,20.2,3.9,13.3C3.9,6,9.8,0.1,17,0.1S30.1,6,30.1,13.3
			c0,7-11.8,19.7-12.3,20.3C17.6,33.7,17.3,33.9,17,33.9z M17,2.5c-5.9,0-10.8,4.8-10.8,10.8c0,4.6,7.1,13.6,10.8,17.7
			c3.7-4.1,10.8-13.1,10.8-17.7C27.8,7.3,22.9,2.5,17,2.5z"/>
	</g>
	<g>
		<path class="st0" d="M17,18.6c-3.3,0-5.9-2.6-5.9-5.9c0-3.3,2.6-5.9,5.9-5.9c3.3,0,5.9,2.6,5.9,5.9C22.9,15.9,20.3,18.6,17,18.6z
			 M17,9.1c-2,0-3.6,1.6-3.6,3.6c0,2,1.6,3.6,3.6,3.6c2,0,3.6-1.6,3.6-3.6C20.6,10.7,19,9.1,17,9.1z"/>
	</g>
</g>
</svg>
