<?xml version="1.0" encoding="utf-8"?>
<!-- Generator: Adobe Illustrator 26.3.1, SVG Export Plug-In . SVG Version: 6.00 Build 0)  -->
<svg version="1.1" id="Capa_1" xmlns="http://www.w3.org/2000/svg" xmlns:xlink="http://www.w3.org/1999/xlink" x="0px" y="0px"
	 viewBox="0 0 34 34" style="enable-background:new 0 0 34 34;" xml:space="preserve">
<style type="text/css">
	.st0{display:none;}
	.st1{display:inline;}
	.st2{fill:#EB4A4C;}
	.st3{display:none;fill:#EB4A4C;}
</style>
<g class="st0">
	<g class="st1">
		<path class="st2" d="M17,33.9L17,33.9c-0.3,0-0.6-0.1-0.9-0.4C15.6,33,3.9,20.2,3.9,13.3C3.9,6,9.8,0.1,17,0.1S30.1,6,30.1,13.3
			c0,7-11.8,19.7-12.3,20.3C17.6,33.7,17.3,33.9,17,33.9z M17,2.5c-5.9,0-10.8,4.8-10.8,10.8c0,4.6,7.1,13.6,10.8,17.7
			c3.7-4.1,10.8-13.1,10.8-17.7C27.8,7.3,22.9,2.5,17,2.5z"/>
	</g>
	<g class="st1">
		<path class="st2" d="M17,18.6c-3.3,0-5.9-2.6-5.9-5.9c0-3.3,2.6-5.9,5.9-5.9c3.3,0,5.9,2.6,5.9,5.9C22.9,15.9,20.3,18.6,17,18.6z
			 M17,9.1c-2,0-3.6,1.6-3.6,3.6c0,2,1.6,3.6,3.6,3.6c2,0,3.6-1.6,3.6-3.6C20.6,10.7,19,9.1,17,9.1z"/>
	</g>
</g>
<path class="st3" d="M29.1,6.9H4.9C2.2,6.9,0,9.1,0,11.8v16.9c0,2.7,2.2,4.9,4.9,4.9h24.2c2.7,0,4.9-2.2,4.9-4.9V11.8
	C34,9.1,31.8,6.9,29.1,6.9z M29.1,9.3c0.2,0,0.4,0,0.6,0.1L19.5,20.9C18.9,21.6,18,22,17,22c-0.9,0-1.8-0.4-2.5-1.1L4.3,9.3
	c0.2,0,0.4-0.1,0.6-0.1H29.1z M31.7,28.7c0,1.4-1.1,2.6-2.6,2.6H4.9c-1.4,0-2.6-1.1-2.6-2.6V11.8c0-0.3,0.1-0.7,0.2-1l10.2,11.6
	c1.1,1.2,2.6,1.9,4.2,1.9c1.6,0,3.2-0.7,4.2-1.9l10.2-11.6c0.1,0.3,0.2,0.6,0.2,1V28.7z"/>
<g>
	<path class="st2" d="M23.9,0H10.1c-2.8,0-5,2.3-5,5V29c0,2.8,2.3,5,5,5h13.7c2.8,0,5-2.3,5-5V5C28.9,2.3,26.7,0,23.9,0z M10.1,2.3
		h13.7c1.5,0,2.7,1.2,2.7,2.7v19.2H7.4V5C7.4,3.5,8.6,2.3,10.1,2.3z M23.9,31.7H10.1c-1.5,0-2.7-1.2-2.7-2.7v-2.4h19.2V29
		C26.6,30.5,25.4,31.7,23.9,31.7z"/>
	<path class="st2" d="M16.7,5.7c0.5,0,0.9-0.4,0.9-0.9c0-0.5-0.4-0.9-0.9-0.9c-0.5,0-0.9,0.4-0.9,0.9C15.8,5.2,16.2,5.7,16.7,5.7z"
		/>
	<path class="st2" d="M16.7,28c-0.5,0-0.9,0.4-0.9,0.9c0,0.5,0.4,0.9,0.9,0.9c0.5,0,0.9-0.4,0.9-0.9C17.6,28.4,17.2,28,16.7,28z"/>
</g>
</svg>
